{"accessors" : [{"bufferView" : 0, "byteOffset" : 0, "componentType" : 5123, "count" : 7062, "type" : "SCALAR", "max" : [3991], "min" : [0]}, {"bufferView" : 1, "byteOffset" : 0, "componentType" : 5126, "count" : 3992, "type" : "VEC3", "max" : [6.583630561828613, 17.1903018951416, 9.078834533691406], "min" : [-0.4663667678833008, -1.0920865535736084, -9.125164985656738], "name" : "POSITION"}, {"bufferView" : 1, "byteOffset" : 12, "componentType" : 5126, "count" : 3992, "type" : "VEC3", "max" : [1.0000044107437134, 1.0000044107437134, 1.0000044107437134], "min" : [-1.0000044107437134, -1.0000044107437134, -1.0000044107437134], "name" : "NORMAL"}, {"bufferView" : 1, "byteOffset" : 24, "componentType" : 5126, "count" : 3992, "type" : "VEC2", "max" : [0.875, 1], "min" : [0, 0], "name" : "TEXCOORD_0"}, {"bufferView" : 0, "byteOffset" : 14124, "componentType" : 5123, "count" : 3123, "type" : "SCALAR", "max" : [1597], "min" : [0]}, {"bufferView" : 2, "byteOffset" : 0, "componentType" : 5126, "count" : 1598, "type" : "VEC3", "max" : [6.512797832489014, 22.636829376220703, 9.11529541015625], "min" : [-6.511733055114746, -1.9164793491363525, -9.115294456481934], "name" : "POSITION"}, {"bufferView" : 2, "byteOffset" : 12, "componentType" : 5126, "count" : 1598, "type" : "VEC3", "max" : [1.0000044107437134, 1.0000044107437134, 1.0000044107437134], "min" : [-1.0000044107437134, -1.0000044107437134, -1.0000044107437134], "name" : "NORMAL"}, {"bufferView" : 2, "byteOffset" : 24, "componentType" : 5126, "count" : 1598, "type" : "VEC2", "max" : [0.875, 1], "min" : [0.125, 0], "name" : "TEXCOORD_0"}, {"bufferView" : 0, "byteOffset" : 20372, "componentType" : 5123, "count" : 576, "type" : "SCALAR", "max" : [330], "min" : [0]}, {"bufferView" : 3, "byteOffset" : 0, "componentType" : 5126, "count" : 331, "type" : "VEC3", "max" : [6.512797832489014, 22.636829376220703, 9.11529541015625], "min" : [-6.511733055114746, -1.9164793491363525, -9.115294456481934], "name" : "POSITION"}, {"bufferView" : 3, "byteOffset" : 12, "componentType" : 5126, "count" : 331, "type" : "VEC3", "max" : [1.0000044107437134, 1.0000044107437134, 1.0000044107437134], "min" : [-1.0000044107437134, -1.0000044107437134, -1.0000044107437134], "name" : "NORMAL"}, {"bufferView" : 3, "byteOffset" : 24, "componentType" : 5126, "count" : 331, "type" : "VEC2", "max" : [0.875, 1], "min" : [0.375, 0], "name" : "TEXCOORD_0"}, {"bufferView" : 0, "byteOffset" : 21524, "componentType" : 5123, "count" : 1116, "type" : "SCALAR", "max" : [551], "min" : [0]}, {"bufferView" : 4, "byteOffset" : 0, "componentType" : 5126, "count" : 552, "type" : "VEC3", "max" : [5.985762596130371, 21.738449096679688, 8.716681480407715], "min" : [-5.232627868652344, -1.0351908206939697, -8.673863410949707], "name" : "POSITION"}, {"bufferView" : 4, "byteOffset" : 12, "componentType" : 5126, "count" : 552, "type" : "VEC3", "max" : [1.0000044107437134, 7.728496711933985E-06, 1.0000044107437134], "min" : [-1.0000044107437134, -3.8642488107143436E-06, -1.0000044107437134], "name" : "NORMAL"}, {"bufferView" : 4, "byteOffset" : 24, "componentType" : 5126, "count" : 552, "type" : "VEC2", "max" : [0.8605281114578247, 0.9956179857254028], "min" : [0.3800956606864929, 0.14733147621154785], "name" : "TEXCOORD_0"}, {"bufferView" : 0, "byteOffset" : 23756, "componentType" : 5123, "count" : 11850, "type" : "SCALAR", "max" : [7761], "min" : [0]}, {"bufferView" : 5, "byteOffset" : 0, "componentType" : 5126, "count" : 7762, "type" : "VEC3", "max" : [9.026834487915039, 21.738449096679688, 8.829288482666016], "min" : [-5.423986434936523, -1.9164793491363525, -8.84786605834961], "name" : "POSITION"}, {"bufferView" : 5, "byteOffset" : 12, "componentType" : 5126, "count" : 7762, "type" : "VEC3", "max" : [1.0000044107437134, 1.0000044107437134, 1.0000044107437134], "min" : [-1.0000044107437134, -1.0000044107437134, -1.0000044107437134], "name" : "NORMAL"}, {"bufferView" : 5, "byteOffset" : 24, "componentType" : 5126, "count" : 7762, "type" : "VEC2", "max" : [1, 1], "min" : [0.07156534492969513, 0], "name" : "TEXCOORD_0"}, {"bufferView" : 0, "byteOffset" : 47456, "componentType" : 5123, "count" : 324, "type" : "SCALAR", "max" : [211], "min" : [0]}, {"bufferView" : 6, "byteOffset" : 0, "componentType" : 5126, "count" : 212, "type" : "VEC3", "max" : [5.051087379455566, 25.535533905029297, 6.031440734863281], "min" : [4.838057994842529, 22.53033447265625, -6.400297164916992], "name" : "POSITION"}, {"bufferView" : 6, "byteOffset" : 12, "componentType" : 5126, "count" : 212, "type" : "VEC3", "max" : [1.0000044107437134, 0.9897924661636353, 0.9838238954544067], "min" : [-1.0000044107437134, -0.8888024687767029, -0.9837585687637329], "name" : "NORMAL"}, {"bufferView" : 6, "byteOffset" : 24, "componentType" : 5126, "count" : 212, "type" : "VEC2", "max" : [0.6355608701705933, 0.4166666865348816], "min" : [0.6355608105659485, 0.3333333730697632], "name" : "TEXCOORD_0"}], "asset" : {"generator" : "Aspose.3D 21.6", "version" : "2.0"}, "buffers" : [{"uri" : "data:application/octet-stream;base64,", "byteLength" : 817764}], "bufferViews" : [{"buffer" : 0, "byteOffset" : 0, "byteLength" : 48104, "target" : 34963}, {"buffer" : 0, "byteOffset" : 48108, "byteLength" : 225984, "byteStride" : 32, "target" : 34962}, {"buffer" : 0, "byteOffset" : 274096, "byteLength" : 99936, "byteStride" : 32, "target" : 34962}, {"buffer" : 0, "byteOffset" : 374036, "byteLength" : 18432, "byteStride" : 32, "target" : 34962}, {"buffer" : 0, "byteOffset" : 392472, "byteLength" : 35712, "byteStride" : 32, "target" : 34962}, {"buffer" : 0, "byteOffset" : 428188, "byteLength" : 379200, "byteStride" : 32, "target" : 34962}, {"buffer" : 0, "byteOffset" : 807392, "byteLength" : 10368, "byteStride" : 32, "target" : 34962}], "materials" : [{"pbrMetallicRoughness" : {"baseColorFactor" : [0.31081274151802063, 0.01512112095952034, 0.017692049965262413, 1], "metallicFactor" : 0, "roughnessFactor" : 0.5}, "emissiveFactor" : [0, 0, 0], "alphaMode" : "OPAQUE", "doubleSided" : true}, {"pbrMetallicRoughness" : {"baseColorFactor" : [0.4868963658809662, 0.33643975853919983, 0.12149902433156967, 1], "metallicFactor" : 0, "roughnessFactor" : 0.5}, "emissiveFactor" : [0, 0, 0], "alphaMode" : "OPAQUE", "doubleSided" : true}, {"pbrMetallicRoughness" : {"baseColorFactor" : [0.5070677995681763, 0.1138719767332077, 0, 1], "metallicFactor" : 0, "roughnessFactor" : 0.5}, "emissiveFactor" : [0, 0, 0], "alphaMode" : "OPAQUE", "doubleSided" : true}, {"pbrMetallicRoughness" : {"baseColorFactor" : [0.11953846365213394, 0.19461780786514282, 0.18447501957416534, 1], "metallicFactor" : 0, "roughnessFactor" : 0.5}, "emissiveFactor" : [0, 0, 0], "alphaMode" : "OPAQUE", "doubleSided" : true}, {"pbrMetallicRoughness" : {"baseColorFactor" : [0.479320228099823, 0.3662526309490204, 0.2622506618499756, 1], "metallicFactor" : 0, "roughnessFactor" : 0.5}, "emissiveFactor" : [0, 0, 0], "alphaMode" : "OPAQUE", "doubleSided" : true}, {"pbrMetallicRoughness" : {"baseColorFactor" : [0.6859562993049622, 0.5827935338020325, 0.060640424489974976, 1], "metallicFactor" : 0, "roughnessFactor" : 0.5}, "emissiveFactor" : [0, 0, 0], "alphaMode" : "OPAQUE", "doubleSided" : true}], "meshes" : [{"primitives" : [{"attributes" : {"POSITION" : 1, "NORMAL" : 2, "TEXCOORD_0" : 3}, "indices" : 0, "material" : 0, "mode" : 4}, {"attributes" : {"POSITION" : 5, "NORMAL" : 6, "TEXCOORD_0" : 7}, "indices" : 4, "material" : 1, "mode" : 4}, {"attributes" : {"POSITION" : 9, "NORMAL" : 10, "TEXCOORD_0" : 11}, "indices" : 8, "material" : 2, "mode" : 4}, {"attributes" : {"POSITION" : 13, "NORMAL" : 14, "TEXCOORD_0" : 15}, "indices" : 12, "material" : 3, "mode" : 4}, {"attributes" : {"POSITION" : 17, "NORMAL" : 18, "TEXCOORD_0" : 19}, "indices" : 16, "material" : 4, "mode" : 4}, {"attributes" : {"POSITION" : 21, "NORMAL" : 22, "TEXCOORD_0" : 23}, "indices" : 20, "material" : 5, "mode" : 4}]}], "nodes" : [{"mesh" : 0, "name" : "Hotel(3star)"}], "scene" : 0, "scenes" : [{"nodes" : [0]}]}